<svg width="42" height="15" xmlns="http://www.w3.org/2000/svg">
  <path d="M3.7 2.93C4.55 1.73 5.52.11 7.53.11c3.34-.06 6.31-.48 9.29.9 2.48 1.92.24 5.65-2.37 6.2.9.78 1.7 1.92 1.4 3.18-.8 3.67-4.44 4.21-7.35 4.34-2.25 0-4.67.3-6.8-.37a1.7 1.7 0 0 1-1.14-1.5c0-.23.03-.45.1-.66.92-2.39 2.01-4.7 3.29-6.92.9-1.44 2.91-1.02 4.37-1.2-.25.48-.73 1.32-.97 1.8 1.88.06 4 .42 5.7-.66.55-.36.97-1.2.6-1.8-.66-.79-1.81-.67-2.72-.79-2.41-.07-4.83.03-7.23.3Zm1.34 8.3c-.3.9 1.15.73 1.7.85 1.94.24 4.85-.06 5.46-2.05a1.12 1.12 0 0 0-.85-1.38c-1.5-.31-3.04-.35-4.55-.12-1.15.42-1.46 1.74-1.76 2.7ZM19.97 3a.45.45 0 0 1-.37-.2.44.44 0 0 1-.05-.41C20.03 1.37 20.7.34 21.92.34c3.15-.12 6.3-.12 9.47 0a.66.66 0 0 1 .55.3.64.64 0 0 1 .05.6c-.73 1.51-1.76 2.96-1.88 4.7 3.1-1.14 4.86-4.21 7.9-5.6a8.37 8.37 0 0 1 3.45-.06.3.3 0 0 1 .24.24.3.3 0 0 1-.12.3c-2.36 1.75-4.73 3.44-6.92 5.36 2.98 1.93.91 5.78 2.07 8.54-1.28-.18-3.04.54-3.95-.66-.24-1.44.24-3 0-4.45a1.78 1.78 0 0 0-1.03-1.32c-.97-.3-2-.32-2.97-.06-1.52 1.62-1.83 4.03-3.16 5.83-1.03 1.08-2.67.72-4 .78 1.81-3.79 3.63-7.58 5.46-11.3-2.13-.9-4.68-.6-7.1-.55Z" />
  <path d="M19.24 6.79c-1.64-.85-.24-2.17.85-2.53a23.5 23.5 0 0 1 4.13-.12c-1.46 3.19-2.91 6.44-4.37 9.62a1.1 1.1 0 0 1-.79.67c-.97.24-1.97.36-2.97.36a.39.39 0 0 1-.34-.17.38.38 0 0 1-.03-.38c1.16-2.52 2.3-4.99 3.52-7.45Z" />
</svg>