<svg width="56" height="56" viewBox="0 0 56 56" fill="none" xmlns="http://www.w3.org/2000/svg">
<g clip-path="url(#clip0_1_24198)">
<path d="M38.5 39.3973C37.8959 39.3973 37.4062 39.8883 37.4062 40.4932C37.4062 41.0981 37.8959 41.5891 38.5 41.5891C39.1037 41.5891 39.5938 41.0981 39.5938 40.4932C39.5938 39.8883 39.1037 39.3973 38.5 39.3973Z" fill="#A3825F"/>
<path d="M29.0938 20.109C29.0938 19.5036 28.6037 19.0131 28 19.0131C27.3963 19.0131 26.9062 19.5036 26.9062 20.109C26.9062 20.7138 27.3963 21.2048 28 21.2048C28.6037 21.2048 29.0938 20.7138 29.0938 20.109Z" fill="#A3825F"/>
<path d="M17.5 41.5891C18.1037 41.5891 18.5938 41.0981 18.5938 40.4932C18.5938 39.8883 18.1037 39.3973 17.5 39.3973C16.8963 39.3973 16.4062 39.8883 16.4062 40.4932C16.4062 41.0981 16.8963 41.5891 17.5 41.5891Z" fill="#A3825F"/>
<path d="M55.3502 46.7954L49.4371 44.1631V20.1088C49.4371 19.6747 49.1778 19.2727 48.7655 19.0972L29.0938 10.6199V2.57453C29.0938 1.96922 28.6037 1.47864 28 1.47864C27.3959 1.47864 26.9063 1.96922 26.9063 2.57453V10.6199L7.23461 19.0972C6.84368 19.2599 6.56298 19.6567 6.56298 20.1088V44.1631L0.649896 46.7954C0.0978943 47.0416 -0.150763 47.6888 0.0944763 48.2419C0.338007 48.7916 0.982294 49.0458 1.53814 48.7984L7.66357 46.0715L27.5681 54.649C27.8313 54.7625 28.153 54.7693 28.4324 54.649L48.3365 46.0715L54.462 48.7984C55.0199 49.0467 55.6629 48.7894 55.9056 48.2419C56.1509 47.6888 55.9022 47.0416 55.3502 46.7954V46.7954ZM26.9063 13.006V15.7252C26.9063 16.3301 27.3959 16.8211 28 16.8211C28.6037 16.8211 29.0938 16.3301 29.0938 15.7252V13.006L45.5752 20.1088L28 27.6828L10.4249 20.1088L26.9063 13.006ZM14.5021 41.8275C14.2564 41.2744 13.61 41.0257 13.0584 41.271L8.75005 43.1893V21.7727L26.9063 29.5972V51.9782L10.3868 44.8592L13.9466 43.2744C14.4986 43.0283 14.7473 42.3806 14.5021 41.8275ZM29.0938 51.9782V29.5972L47.2496 21.7727V43.1893L42.9417 41.2714C42.3893 41.0257 41.7433 41.2744 41.498 41.828C41.2528 42.381 41.5014 43.0283 42.0534 43.2744L45.6133 44.8592L29.0938 51.9782Z" fill="#A3825F"/>
</g>
<defs>
<clipPath id="clip0_1_24198">
<rect width="56" height="56" fill="white"/>
</clipPath>
</defs>
</svg>
