<svg width="1053" height="727" viewBox="0 0 1053 727" fill="none" xmlns="http://www.w3.org/2000/svg">
<g clip-path="url(#clip0_702_505)">
<path d="M263.201 570.6C118.901 484.6 0.501313 413.9 -0.0986872 413.3C-0.598687 412.8 7.30131 407.5 20.4013 399.7C32.1013 392.8 42.4013 386.8 43.3013 386.4C45.5013 385.6 45.5013 383.4 43.3013 382.6C42.4013 382.2 32.1013 376.2 20.3013 369.3C3.80131 359.5 -0.698687 356.3 0.201313 355.4C0.901313 354.8 35.7013 333.9 77.5013 309L345.001 149.5C354.401 143.8 355.601 143.4 356.701 144.9C357.701 146.2 357.601 146.7 356.601 147.5C355.801 148.1 277.101 195.1 181.701 252C86.2013 308.9 8.10131 355.8 8.00131 356.1C8.00131 356.9 49.2013 381.3 50.5013 381.3C51.0013 381.3 73.3013 368.2 100.001 352.3C346.601 204.9 355.401 199.8 356.701 201.6C357.801 203 357.701 203.5 356.201 204.5C354.701 205.5 275.901 252.6 100.201 357.3C85.034 365.986 70.1907 375.225 55.7013 385C56.1013 385.4 100.601 412 154.501 444L272.001 514L338.501 553.7L525.301 664.7C526.101 665.2 554.001 648.6 883.501 452.2C929.201 424.9 973.101 398.8 981.201 394.1C989.301 389.4 995.901 385.3 996.001 385C996.001 384.7 971.601 370.3 941.701 352.8L686.301 203.6L687.501 201.7C688.701 200 697.601 205 804.101 267.3L960.201 358.4L1000.9 382.2L1022.4 369.4C1034.3 362.3 1044 356.3 1044 356C1044 355.7 1043 355 1041.7 354.4C1039.5 353.4 687.801 148.1 687.101 147.4C686.901 147.2 687.101 146.1 687.601 145C688.401 143.2 691.601 144.9 727.501 165.9C834.175 228.04 940.775 290.307 1047.3 352.7L1053.2 356.2L1029.8 370.2C1017 377.8 1006.4 384.4 1006.3 384.8C1006.2 385.2 1016.6 391.6 1029.5 399C1042.4 406.4 1052.6 412.8 1052.2 413.2C1051.5 413.9 526.101 727 525.701 727L263.201 570.6ZM535.101 716.4C581.501 688.5 1041.4 414.8 1042.5 414.4C1043.3 414 1044 413.5 1044 413.1C1044 412.4 1003.5 388.7 1001.4 388.2C1000.7 388 991.901 392.8 981.801 398.8C851.001 476.8 529.001 668.5 527.501 669.2C525.701 670 488.001 647.9 288.501 528.9C158.101 451.3 51.1013 387.7 50.5013 387.7C49.2013 387.7 8.00131 412.1 8.00131 412.9C8.10131 413.2 124.501 482.9 266.801 567.7L525.601 721.9C525.701 722 530.001 719.5 535.101 716.4Z" fill="#A3815E"/>
<path d="M325.5 544.4C292 524.3 263.6 507.5 262.5 507C261.4 506.5 375 506.1 525.9 506.1L791.3 506L786.9 508.4C784.5 509.7 756 526.6 723.6 545.9L664.8 581L525.6 580.9H386.5L325.5 544.4ZM379 422C379 399.6 379.2 396 380.5 396C381.8 396 382 399.6 382 422C382 444.4 381.8 448 380.5 448C379.2 448 379 444.4 379 422ZM396.5 435.8L385.2 421.8C384 420.2 385.1 418.7 394.7 408C401.4 400.6 406.2 396 407.4 396C409.2 396 409.2 396.2 406.9 398.8L396.1 410.7L387.8 419.9L398.2 432.7C410.7 448 410.7 448 408.3 448C407.1 448 402.7 443.4 396.5 435.8ZM425.5 422C425.5 397.9 425.6 396 427.3 396C428.9 396 429 397.8 429 420.5V445H440C449.1 445 451 445.3 451 446.5C451 447.8 448.9 448 438.3 448H425.5V422ZM467 422C467 399.6 467.2 396 468.5 396C469.8 396 470 399.6 470 422C470 444.4 469.8 448 468.5 448C467.2 448 467 444.4 467 422ZM493 421.9V395.9L495.6 396.2C498 396.5 499.7 399.2 510.9 420.5L523.5 444.5L523.8 420.3C524 399.6 524.3 396 525.5 396C526.8 396 527 399.7 527 422V448H524.3C521.7 448 520.7 446.4 509 424C502.2 410.8 496.4 400.2 496.2 400.4C496 400.6 495.9 411.4 496 424.4C496.1 445 495.9 448 494.5 448C493.2 448 493 444.7 493 421.9ZM549.8 422C549.5 397.8 549.6 396 551.3 396C552.9 396 553 397.9 553 422C553 444.2 552.8 448 551.5 448C550.3 448 550 444.1 549.8 422ZM567.4 435.8C562 429.2 556.9 422.9 556.2 421.8C555 420.2 556 418.8 565.7 408C572.1 400.8 577.2 396 578.3 396C580.3 396 579.5 397 565.6 412.4L558.8 420L568.6 432C581.9 448.3 581.7 448 579.3 448C578 448 573.9 443.8 567.4 435.8ZM596 422V396H609C619.9 396 622 396.2 622 397.5C622 398.7 620.1 399 611 399H600V420H609.5C615.2 420 619 420.4 619 421C619 421.6 615.2 422 609.5 422H599.9L600.2 433.8L600.5 445.5L611.8 445.8C627.9 446.2 626.1 448 609.5 448H596V422ZM640 421.9V395.8L650.8 396.2C666.2 396.8 671 400 671 410C671 415.8 668.8 419.5 663.6 422L659.1 424.1L662.9 430.3L669.9 442.3C672.9 447.6 673 448 671.1 448C669.6 448 667.5 445.1 662.3 436L655.5 424H644V436C644 447.3 643.9 448 642 448C640.1 448 640 447.3 640 421.9ZM659.2 421C664.3 419.6 667 415.8 667 410.3C667 401.7 663.3 399 651.5 399H644V422H649.8C652.9 422 657.2 421.5 659.2 421ZM225.3 393.3C244.9 393.1 277.1 393.1 296.8 393.3C316.4 393.4 300.3 393.5 261 393.5C221.7 393.5 205.6 393.4 225.3 393.3ZM721 392C721 391.3 748.2 391 800.5 391C852.8 391 880 391.3 880 392C880 392.7 852.8 393 800.5 393C748.2 393 721 392.7 721 392ZM190 347C190 346.3 214.3 346 261 346C307.7 346 332 346.3 332 347C332 347.7 307.7 348 261 348C214.3 348 190 347.7 190 347ZM721 347C721 346.3 748.2 346 800.5 346C852.8 346 880 346.3 880 347C880 347.7 852.8 348 800.5 348C748.2 348 721 347.7 721 347ZM561.4 193.4C561.7 192.5 562 191.4 562 190.9C562 190.4 562.7 190 563.5 190C565.5 190 565.4 193.6 563.4 194.4C561 195.3 560.7 195.2 561.4 193.4ZM555.2 192.8C553.2 190.8 553.8 189 556.6 189C558.6 189 559.1 189.4 558.6 190.6C558.3 191.5 558 192.6 558 193.1C558 194.4 556.6 194.2 555.2 192.8ZM483 190.5C483 188.7 483.5 188 485 188C487.5 188 488.8 190.9 486.9 192.1C484.4 193.6 483 193.1 483 190.5ZM475.8 190.9C473.2 189.5 473.6 188 476.5 188C478.3 188 479 188.5 479 190C479 192.2 478.3 192.4 475.8 190.9ZM589 185.5C589 183.5 589.5 183 591.5 183C594.3 183 594.4 183.3 593 186.1C591.5 188.9 589 188.5 589 185.5ZM565.5 181.3L568.2 173.9C569.5 170.1 570.8 168 572.1 167.7C574.6 167 574.5 168.6 571.8 176.6C569.8 182 569.1 183 567.1 183C565.3 183 564.9 182.6 565.5 181.3ZM515.3 172.7C514.9 171.9 513.7 171.1 512.8 170.7C511.6 170.3 511 169 511 167V163.9L517 168.2C520.3 170.5 523 172.8 523 173.2C523 174.6 516.2 174.1 515.3 172.7ZM475 167.5C475 164.8 475.1 164.7 477.4 165.6C479.8 166.5 479.4 170 477 170C475.5 170 475 169.3 475 167.5ZM595 169.3C595 168.8 592.8 168.7 590 168.8C586 169.1 585 168.9 585 167.7C585 166.2 586.3 165.7 594.8 164.5C599.2 163.8 599.4 164 598.4 167.8C597.8 169.8 595 171 595 169.3ZM484 167.7C484 167 486.6 165.6 489.8 164.6L496.8 162.3C497.5 162 498 162.7 498 164.2C498 166.2 497.2 166.8 493.5 167.8C487.6 169.4 484 169.3 484 167.7ZM556.7 166.3C556.3 166 556 164.4 556 162.8V160L560 162.6C562.2 164.1 564 165.7 564 166.1C564 167.1 557.7 167.3 556.7 166.3ZM465.3 164.3C464.1 163.9 463.4 159 464.5 159C466 159 473 163.2 473 164C473 165 467.5 165.2 465.3 164.3ZM500 162.6C500 161.3 502.8 160 505.8 160C506.4 160 507 160.9 507 162C507 163.6 506.3 164 503.5 164C501.2 164 500 163.5 500 162.6ZM566.8 162.6C564.2 160.6 564.6 160 568.5 160C571.3 160 572 160.4 572 162C572 164.3 569.4 164.6 566.8 162.6ZM476.8 161.4C473 159.4 473.3 158 477.5 158C480.6 158 481 158.3 481 160.5C481 163.4 480.5 163.5 476.8 161.4ZM454.3 158.3C453.1 157.9 452.4 153 453.5 153C455 153 462 157.2 462 158C462 159 456.5 159.2 454.3 158.3ZM496 156.6C496 153.7 496.7 153.4 499.4 155.5C501.6 157.2 501.5 157.5 498.3 158.4C496.3 159 496 158.8 496 156.6ZM545.7 158.3C545.3 158 545 156.4 545 154.8V152L549 154.6C551.2 156.1 553 157.7 553 158.1C553 159.1 546.7 159.3 545.7 158.3ZM461.7 153.3C459.1 151.8 457.3 150.3 457.7 149.9C459.3 148.5 481 141.9 482 142.5C484.5 144.1 482.4 145.8 475.5 148C468.5 150.2 468 150.5 468 153.2C468 156.6 467.7 156.6 461.7 153.3ZM582.7 154.3C582.3 154 582 152.4 582 150.8V148L586 150.6C588.2 152.1 590 153.7 590 154.1C590 155.1 583.7 155.3 582.7 154.3ZM534.7 150.3C534.3 150 534 148.4 534 146.8V144L538 146.6C540.2 148.1 542 149.7 542 150.1C542 151.1 535.7 151.3 534.7 150.3ZM487.4 141.7C487.2 141 488.1 137.3 489.6 133.4L494.2 121.2C495.8 116.9 496.4 116.1 497.6 117.1C499.1 118.4 499.5 122 498.1 122C497.6 122 497 123.8 496.6 126C496.3 128.2 495.6 130 495.1 130C494.6 130 494 131.8 493.6 134C493.3 136.2 492.5 138 492 138C491.4 138 491 139.1 491 140.5C491 143.2 488.3 144.1 487.4 141.7ZM523.7 142.3C523.3 142 523 140.4 523 138.8V136L527 138.6C529.2 140.1 531 141.7 531 142.1C531 143.1 524.7 143.3 523.7 142.3ZM563.7 140.3C563.3 140 563 138.4 563 136.8V134L567 136.6C569.2 138.1 571 139.7 571 140.1C571 141.1 564.7 141.3 563.7 140.3ZM512.7 134.3C512.3 134 512 132.4 512 130.8V128L516 130.6C518.2 132.1 520 133.7 520 134.1C520 135.1 513.7 135.3 512.7 134.3ZM501.7 126.3C501.3 126 501 124.4 501 122.8V120L505 122.6C507.2 124.1 509 125.7 509 126.1C509 127.1 502.7 127.3 501.7 126.3ZM544.7 126.3C544.3 126 544 124.4 544 122.8V120L548 122.6C550.2 124.1 552 125.7 552 126.1C552 127.1 545.7 127.3 544.7 126.3ZM426.5 108.9C415 99.5 405.6 91.6 405.8 91.4L406.3 90.8C406.7 90.4 447.7 123.7 448.5 125C450.2 127.8 445.6 124.4 426.5 108.9ZM604.1 125.2C604.7 123.6 644.9 91 646.3 91C647.9 91 646 92.6 625 109.7C605.4 125.5 603.5 126.9 604.1 125.2ZM501.5 116L498.5 114H502.3C505.3 114 506 114.4 506 116C506 118.5 505.3 118.5 501.5 116ZM462.1 68.4C455.791 58.5788 449.886 48.5037 444.4 38.2C444.8 37.9 445.2 37.9 445.4 38.1L481.7 97.3C481.9 97.7 481.7 98 481.2 98C480.7 98 472.1 84.7 462.1 68.4ZM562.3 97.3L598.6 38.1C598.8 37.9 599.2 37.9 599.6 38.2C600.3 39 564 98 562.8 98C562.3 98 562.1 97.7 562.3 97.3ZM520 43.5C520 15.2 520.3 0 521 0C521.7 0 522 15.2 522 43.5C522 71.8 521.7 87 521 87C520.3 87 520 71.8 520 43.5Z" fill="#A3815E"/>
<path d="M191.5 370.5V365H197.8C201.2 365 204 365.3 204 365.8C204 366.2 201.5 366.3 198.5 366.2C193.5 365.8 193 366 193 367.9C193 369.5 193.6 370 195.5 370C196.9 370 198 370.4 198 370.9C198 371.3 196.8 371.5 195.4 371.2C192.9 370.8 192.8 370.9 193.2 373.4C193.5 374.9 193.3 376 192.6 376C191.9 376 191.5 373.9 191.5 370.5ZM207.4 374.7C207.1 373.9 207 371.5 207.3 369.4C207.6 365.7 207.7 365.7 207.8 370.3L208 375H218.1L217.8 370.8C217.5 366.5 217.5 366.5 213 365.9L208.5 365.3L212.6 365.2C217.7 365 219.2 366.6 218.8 371.7L218.5 375.5L213.2 375.8C209.4 376 207.8 375.7 207.4 374.7ZM222.5 370.5V365H227.7C230.5 365 233.1 365.3 233.3 365.8C233.6 366.2 231.6 366.3 228.9 366.2C224.4 365.8 224 366 224 368C224 370 224.4 370.2 229 369.8C232.1 369.6 233.6 369.9 233 370.4C232.4 371 230.2 371.3 228 371.2C224.3 370.9 224 371.1 224 373.5C224 374.9 223.7 376 223.3 376C222.8 376 222.5 373.5 222.5 370.5ZM243.5 370.5V365H249.8C253.2 365 256 365.3 256 365.8C256 366.2 253.5 366.3 250.5 366.2C245.5 365.8 245 366 245 367.9C245 369.5 245.6 370 247.5 370C248.9 370 250 370.4 250 370.9C250 371.3 248.8 371.5 247.4 371.2C244.9 370.8 244.8 370.9 245.2 373.4C245.5 374.9 245.3 376 244.6 376C243.9 376 243.5 373.9 243.5 370.5ZM260.2 372.3L261.3 366.8C261.4 365.4 262.4 365 265.8 365C268.5 365 269.9 365.4 269.5 366C269.1 366.6 269.2 367.7 269.7 368.3C270.1 369 269.8 368.8 268.8 367.8C267.9 366.8 266.5 366 265.6 366C263.5 366 261 369.9 261 373.2C261 374.8 260.6 376 260.1 376C259.6 376 259.6 374.4 260.2 372.3ZM270.5 373.5C270.5 372.1 270.8 371 271.3 371C271.7 371 272 372.1 272 373.5C272 374.9 271.7 376 271.3 376C270.8 376 270.5 374.9 270.5 373.5ZM276 370.5C276 364.4 277.3 363.4 280.6 367.3C282.5 369.5 282.5 369.5 280.4 367.8C277.3 365.1 276.8 365.6 277.2 371C277.3 373.8 277.2 376 276.8 376C276.3 376 276 373.5 276 370.5ZM288.9 370.8L289.2 365.5L286.6 367.9C285.2 369.2 284.3 370.7 284.6 371.1C284.9 371.6 284.4 372 283.6 372C282.7 372 282 371.8 282 371.5C282 370.6 288.4 365.1 289.5 365C290.1 365 290.4 367.3 290.2 370.5C290 373.5 289.5 376 289.2 376C288.8 376 288.7 373.6 288.9 370.8ZM294.5 370.5C294.5 367.5 295 365 295.5 365C296.1 365 296.5 367.5 296.5 370.5C296.5 373.5 296.1 376 295.5 376C295 376 294.5 373.5 294.5 370.5ZM300.5 370.5C300.5 365.3 300.6 365 303 365.1C304.7 365.2 304.9 365.4 303.8 365.7C302.4 366 302 367.2 302 370.7V375.2L307.5 374.8C310.5 374.7 313 374.8 313 375.3C313 375.7 310.2 376 306.8 376H300.5V370.5ZM321.6 374.5C322 373.7 321.7 372.3 321 371.5C319.9 370.2 320 370.1 321.3 370.6C322.1 370.9 324.1 370.4 325.7 369.4L328.5 367.7L325.6 370.2C323.6 371.9 322.9 373.2 323.3 374.3C323.7 375.4 323.4 376 322.5 376C321.6 376 321.3 375.4 321.6 374.5ZM723.5 370.5V365H729.8C733.2 365 736 365.3 736 365.8C736 366.2 733.5 366.3 730.5 366.2C725.5 365.8 725 366 725 367.9C725 369.5 725.6 370 727.5 370C728.9 370 730 370.4 730 370.9C730 371.3 728.8 371.5 727.4 371.2C724.9 370.8 724.8 370.9 725.2 373.4C725.5 374.9 725.3 376 724.6 376C723.9 376 723.5 373.9 723.5 370.5ZM739.7 375.4C738.5 374.2 738.9 367.5 740.2 366.2C740.9 365.5 743.2 365.1 745.5 365.2L749.5 365.3L745 365.9C740.5 366.5 740.5 366.5 740.2 370.8L739.9 375H749.9L750.3 370.8L750.7 366.5L750.6 371L750.5 375.5L745.5 375.8C742.7 376 740.1 375.8 739.7 375.4ZM754.5 370.5V365H759.6C765.8 365 768.4 367 765.7 369.7C764.6 370.8 762.7 371.3 759.9 371.1C755.9 370.9 755.8 371 756.2 373.5C756.5 374.9 756.3 376 755.6 376C754.9 376 754.5 373.9 754.5 370.5ZM765.5 368C765.5 366.9 764.2 366.4 760.8 366.2C756.5 365.9 756 366.1 756 368C756 369.9 756.5 370.1 760.8 369.8C764.2 369.6 765.5 369.1 765.5 368ZM775.8 373C776 371.4 777 369.5 777.9 368.8C779.3 367.6 779.4 367.7 778.1 369.2C777.4 370.2 777 372.1 777.2 373.5C777.5 375 777.3 376 776.5 376C775.8 376 775.5 374.9 775.8 373ZM786.8 372.6C786.6 370.7 786.7 369.3 787.1 369.6C788 370.1 788.8 376 787.9 376C787.5 376 787 374.5 786.8 372.6ZM797.5 370.5V365L803 365.2L808.5 365.4L803.8 365.7L799 366.1V375H808.9L809.3 370.3L809.7 365.5L809.6 370.5L809.5 375.5L803.5 375.8L797.5 376.1V370.5ZM814 370.5V365H818.4C820.8 365 823.5 365.3 824.4 365.6C826.6 366.4 826.4 369.2 824 371.3C822.9 372.2 822 372.5 822 372C822 371.4 820.4 371 818.4 371C815.1 371 814.8 371.2 815.2 373.5C815.5 374.9 815.3 376 814.9 376C814.4 376 814 373.5 814 370.5ZM824.8 368.3C824.6 366.9 823.3 366.4 819.7 366.2C815.5 365.9 815 366.1 815 367.9C815 369.7 815.6 370 820.1 370C824.4 370 825.1 369.7 824.8 368.3ZM829.5 370.5V365H835.8C839.2 365 842 365.3 842 365.8C842 366.2 839.5 366.3 836.5 366.2C831.5 365.8 831 366 831 367.9C831 369.5 831.6 370 833.5 370C834.9 370 836 370.4 836 370.9C836 371.3 834.9 371.5 833.5 371.2C831.4 370.9 831 371.2 831 373C831 375 831.4 375.2 836.5 374.8C839.5 374.7 842 374.8 842 375.3C842 375.7 839.2 376 835.8 376H829.5V370.5ZM845.8 373C846.4 368.8 847.7 368.4 847.2 372.6C847 374.5 846.5 376 846.1 376C845.7 376 845.5 374.6 845.8 373ZM856.8 373.5C857 372.1 856.6 370.2 855.9 369.2C854.6 367.7 854.7 367.6 856.1 368.8C858.1 370.3 859.2 376 857.5 376C856.7 376 856.5 375 856.8 373.5ZM874.9 370.8L875.2 365.5L872.6 367.9C871.2 369.2 870.3 370.7 870.6 371.1C870.9 371.6 870.3 372 869.4 372C868.4 372 868 371.7 868.3 371.3C869.3 370.4 865 366 863.1 365.9C861.9 365.9 861.9 365.7 862.8 365.3C863.6 365 865.4 366 866.9 367.4L869.6 370L872 367.5C875.5 363.7 876.5 364.4 876.5 370.5C876.5 373.5 876.1 376 875.5 376C874.9 376 874.6 373.8 874.9 370.8ZM784.4 366.9C784.1 366.3 782.7 366 781.4 366.3C780 366.5 778.7 366.3 778.4 365.9C778.1 365.4 779.6 365 781.8 365C784.6 365 785.7 365.4 785.7 366.5C785.7 368.3 785.4 368.4 784.4 366.9ZM848.3 366.5C848.3 365.4 849.5 365 852.2 365C854.4 365 855.9 365.4 855.6 365.9C855.3 366.4 854.1 366.6 853 366.3C851.9 366 850.4 366.3 849.7 366.9C848.7 367.7 848.3 367.6 848.3 366.5ZM373 340.5C373 335.7 373.2 335 375 335C376.9 335 377 334.3 377 324C377 317.3 376.6 313 376 313C375.5 313 375 310.5 375 307.5C375 304.5 375.5 302 376 302C376.6 302 377 297.5 377 290.5C377 279.7 376.9 279 375 279C373.2 279 373 278.3 373 273.5V268H406.8C426.3 268 442 268.4 444.1 269C448.155 270.135 451.803 272.399 454.62 275.528C457.436 278.658 459.305 282.524 460.007 286.675C460.709 290.827 460.217 295.092 458.587 298.974C456.956 302.856 454.256 306.195 450.8 308.6C448.7 310.1 445.1 311.5 442.5 311.8C439.6 312.1 438 312.7 438 313.7C438 314.4 440.4 319.5 443.3 325L448.5 335H458V346H433V340.5C433 336.1 433.3 335 434.6 335C435.5 335 436 334.7 435.8 334.3L430.2 323.3L425 313H388V335H390.5C392.9 335 393 335.3 393 340.5V346H373V340.5ZM445.9 298.6C449.7 294.9 450.7 290.5 448.7 285.7C446 279.3 444.4 279 414.5 279H388V302.1L415.4 301.8L442.9 301.5L445.9 298.6Z" fill="#FAFAFA"/>
<path d="M391.398 290.5C391.398 285.6 391.498 283.4 391.698 285.7C391.898 288 391.898 292.1 391.698 294.7C391.498 297.3 391.398 295.5 391.398 290.5ZM396.298 340.5C396.298 337.2 396.498 336 396.698 337.8C396.898 339.6 396.898 342.3 396.698 343.8C396.498 345.3 396.298 343.8 396.298 340.5ZM461.298 340.5C461.298 337.2 461.498 336 461.698 337.8C461.898 339.6 461.898 342.3 461.698 343.8C461.498 345.3 461.298 343.8 461.298 340.5ZM477.998 340.5C477.998 335.7 478.198 335 479.998 335C481.998 335 481.998 334.3 481.998 307C481.998 279.7 481.998 279 479.998 279C478.198 279 477.998 278.3 477.998 273.5V268H499.998V279H492.998V300H529.698L542.898 293.5L555.998 287.1V283C555.998 279.2 555.798 279 552.998 279C549.998 279 549.998 278.9 549.998 273.5V268H572.498V273.5C572.498 278.8 572.398 279 569.798 279C566.998 279 566.998 279 566.998 286.3V293.6L554.998 299.5C548.398 302.8 542.998 305.7 542.998 306C542.998 306.3 548.198 309 554.498 311.9L565.998 317.3V335H572.998V346H549.998V340.5C549.998 335.3 550.098 335 552.498 335C554.898 335 554.998 334.7 554.998 329.7V324.3L541.398 317.7L527.898 311H492.998V335H499.998V346H477.998V340.5Z" fill="#FAFAFA"/>
<path d="M503.298 340.5C503.298 337.2 503.498 336 503.698 337.8C503.898 339.6 503.898 342.3 503.698 343.8C503.498 345.3 503.298 343.8 503.298 340.5ZM575.298 340.5C575.298 337.2 575.498 336 575.698 337.8C575.898 339.6 575.898 342.3 575.698 343.8C575.498 345.3 575.298 343.8 575.298 340.5ZM607.698 345C603.298 343.7 598.198 339.3 595.998 334.9C594.898 332.8 593.298 331 592.598 331C591.598 331 591.098 329.4 590.798 325.6L590.498 320.3L598.998 319.7C603.598 319.3 607.498 319.2 607.598 319.3L608.498 324.8C609.098 329.2 608.898 330 607.598 330C605.198 330 605.698 331.6 608.798 333.6C611.098 335.2 613.998 335.5 628.898 335.8C652.098 336.3 656.498 335.7 660.698 331.5C663.398 328.8 663.998 327.4 663.998 324C663.998 320.6 663.398 319.2 660.598 316.4L657.198 313H635.898C624.098 313 612.698 312.5 610.598 312C605.198 310.8 598.898 306.2 596.298 301.5C591.098 292.3 592.498 282.4 599.998 274.9C606.498 268.5 610.198 267.7 635.498 268.2C652.698 268.5 655.998 268.8 658.998 270.4C663.898 273 666.898 275.9 669.098 280.3C670.398 282.7 671.698 284 672.998 284C674.698 284 674.998 284.7 674.998 288.9C674.998 294.7 674.498 295 664.998 295C657.498 295 656.998 294.6 656.998 288.4C656.998 286.5 657.498 285 657.998 285C660.098 285 658.898 282.9 655.798 281C652.798 279.2 650.698 279 632.698 279C610.898 279 608.298 279.6 605.498 285C603.598 288.8 603.598 292.5 605.598 296C608.998 301.7 610.698 302 635.298 302H657.798L663.098 304.8C670.798 308.8 674.498 315 674.498 324C674.498 333 670.798 339.2 663.098 343.2L657.798 346L634.098 345.9C621.098 345.9 609.198 345.4 607.698 345ZM391.398 324C391.398 318.8 391.498 316.6 391.698 319.3C391.898 321.9 391.898 326.1 391.698 328.8C391.498 331.4 391.398 329.2 391.398 324ZM448.498 329.9C447.598 328.2 446.998 326.6 447.198 326.4C447.498 326.2 448.398 327.6 449.298 329.5C451.398 333.8 450.598 334.2 448.498 329.9ZM496.398 323.5C496.398 318 496.498 315.9 496.698 318.8C496.898 321.7 496.898 326.2 496.698 328.8C496.498 331.4 496.398 329 496.398 323.5ZM569.398 324.5C569.398 319.6 569.498 317.4 569.698 319.7C569.898 322 569.898 326.1 569.698 328.7C569.498 331.3 569.398 329.5 569.398 324.5Z" fill="#FAFAFA"/>
<path d="M611.099 323.8C611.199 318.3 611.599 318.8 612.199 325.3C612.399 327.3 612.199 329 611.799 329C611.399 329 611.099 326.6 611.099 323.8ZM677.098 320.7C676.998 319.2 676.298 316.3 675.498 314.2C674.198 311 674.198 310.7 675.498 312.4C677.198 314.6 678.498 320.3 677.698 322.2C677.398 322.9 677.098 322.2 677.098 320.7ZM457.198 306.5C463.498 299.5 464.898 288.1 460.498 279.5C459.198 276.8 458.198 274.5 458.298 274.4C458.398 274.2 459.698 275.7 460.998 277.7C462.998 280.6 463.598 282.9 463.798 289C464.198 297.7 462.498 302.5 457.298 307L454.498 309.5L457.198 306.5ZM496.298 290C496.298 285.3 496.498 283.4 496.698 285.8C496.898 288.1 496.898 291.9 496.698 294.3C496.498 296.6 496.298 294.7 496.298 290ZM569.299 288.5C569.299 284.7 569.499 283.2 569.699 285.3C569.899 287.3 569.899 290.5 569.699 292.3C569.499 294 569.299 292.4 569.299 288.5ZM678.198 291C678.198 289.1 678.398 288.3 678.698 289.3C678.898 290.2 678.898 291.8 678.698 292.8C678.398 293.7 678.198 292.9 678.198 291ZM503.298 273.5C503.298 270.2 503.498 269 503.698 270.8C503.898 272.6 503.898 275.3 503.698 276.8C503.498 278.3 503.298 276.8 503.298 273.5ZM575.299 273.5C575.299 270.2 575.499 269 575.699 270.8C575.899 272.6 575.899 275.3 575.699 276.8C575.499 278.3 575.299 276.8 575.299 273.5ZM562.599 189.8C563.499 186.9 564.999 182.7 565.999 180.5C566.999 178.3 568.299 174.8 568.999 172.7C569.599 170.7 570.899 168.6 571.799 168.1C573.199 167.4 592.099 165 596.699 165C597.399 165 597.999 166 597.999 167.3C597.899 169.9 593.899 183.8 592.499 186.1C591.799 187.2 586.599 188.9 577.499 191L562.299 194.7C561.399 195.1 561.499 193.8 562.599 189.8ZM521.998 168.1C484.398 139.9 485.798 141.4 489.498 134.3C490.298 132.8 490.998 130.7 490.998 129.8C490.998 128.9 491.398 127.9 491.898 127.5C492.398 127.2 493.098 125.6 493.498 123.9C493.898 122.2 494.698 119.8 495.398 118.5L496.598 116.1L501.098 120C503.498 122.2 505.898 123.9 506.398 124C506.998 124 509.498 125.8 512.098 128C514.698 130.2 517.198 132 517.598 132C517.998 132 520.498 133.8 523.098 136C525.698 138.2 528.198 140 528.598 140C528.998 140 531.498 141.8 534.098 144C536.698 146.2 539.198 148 539.598 148C539.998 148 542.498 149.8 545.098 152C547.698 154.2 550.198 156 550.598 156C550.998 156 553.499 157.8 556.099 160C558.699 162.2 561.299 164 561.799 164C562.299 164 563.499 164.9 564.399 165.9C566.099 167.8 566.099 168.3 562.499 179.2C560.399 185.4 558.299 191 557.899 191.6C557.399 192.2 557.299 193 557.699 193.3C557.999 193.7 557.899 194 557.399 193.9C556.899 193.9 540.998 182.3 521.998 168.1ZM483.998 191.6C483.398 191 482.998 185.3 482.998 178.5V166.5L488.798 165.1C491.898 164.4 494.998 163.4 495.498 163C496.098 162.5 498.698 161.6 501.398 161L506.198 159.9L512.998 165.5C516.698 168.5 519.998 171 520.398 171C521.398 171 531.998 179.1 531.998 179.9C531.998 181.2 484.998 192.6 483.998 191.6ZM464.498 184.1L453.498 177.4L453.198 165.2C453.098 158.5 453.098 153 453.298 153L459.298 156L470.598 162C479.398 166.6 478.998 165.8 478.998 179.1C478.998 189.8 478.798 191 477.298 190.9C476.298 190.9 470.598 187.8 464.498 184.1ZM473.898 159.7L462.498 153.6C460.298 152.4 458.698 151.1 458.798 150.5C458.898 150 463.998 147.8 470.198 145.8L481.298 142L490.098 148.5C498.398 154.8 502.398 158.4 500.398 157.9C499.898 157.8 498.798 157.9 497.998 158.3L488.898 161.3L481.398 163.7L473.898 159.7ZM567.499 162.8C566.499 162.2 550.598 151 532.298 137.9C503.198 117.1 499.498 114.2 502.298 114.1C504.098 114.1 511.698 113.4 519.198 112.7L532.998 111.4L540.098 117L548.798 123.5C549.698 124.1 553.999 127.2 558.299 130.5L567.799 137.5C568.699 138.1 572.999 141.2 577.299 144.5C581.699 147.8 585.999 151 586.899 151.5C590.299 153.6 597.999 159.4 597.699 159.6C597.399 159.9 570.399 164.1 569.699 164L567.499 162.8Z" fill="#FAFAFA"/>
<path d="M363.9 553.3C363.8 552.8 363.9 549.2 364 545.3C364.2 538.5 364 538 362.1 538C360.9 538 359.7 538.7 359.4 539.5C358.4 542 356 541.2 356 538.5V536H366C375.2 536 376 536.1 376 537.9C376 540.7 373.9 541.6 372.4 539.6C371.7 538.6 370.4 538 369.4 538.2C367.9 538.4 367.6 539.6 367.5 544.5C367.5 547.8 367.9 550.8 368.4 551.1C368.9 551.5 368.9 552.3 368.6 552.9C367.8 554.1 364.1 554.4 363.9 553.3ZM378.9 553.8L378.7 544.7L378.5 536H387.2C393.7 536 396.2 536.4 397.4 537.6C399.7 539.9 399.4 542.6 396.5 544.7C394.7 546 394.2 547.1 394.6 548.8C395 550 395.9 551 396.7 551C397.5 551 398 551.6 397.8 552.3C397.5 552.9 396 553.5 394.4 553.5C392.2 553.5 391.6 553.1 391.8 551.8C392.4 548.2 390.2 546 386 546C382.4 546 382 546.3 382 548.4C382 549.7 382.6 551.1 383.3 551.3C384.2 551.7 384.1 552.1 383 552.9C381.7 553.9 379.1 554.4 378.9 553.8ZM395 541C395 538.7 392.1 537.7 386.4 538.2C383.2 538.4 382.5 538.9 382.4 540.8C382.3 542.9 382.7 543 388.6 543C394.3 543 395 542.8 395 541ZM402.6 549.3C403 546.7 403.9 543.5 404.7 542.2C405.5 540.9 405.8 539 405.5 538C404.9 536.1 405.4 536 412.5 536C419.1 536 420.1 536.2 419.6 537.6C419.3 538.5 419.9 540.5 421.1 542.1C422.5 544.1 423.1 546.1 422.8 548C422.5 549.6 422.8 551.1 423.4 551.3C425 551.8 423.1 554 421 554C418.6 554 417.5 552.3 418.9 550.6C420.6 548.6 419.1 548 412.3 548C405.9 548 405.9 548 406.2 550.8C406.4 552.9 406 553.6 404.3 553.8C402.1 554.1 402.1 553.9 402.6 549.3ZM416.9 541.9C413.8 537.5 412.1 537.2 409.3 540.6C408.1 542.2 407 543.8 407 544.3C407 544.7 409.7 545 413.1 545H419.1L416.9 541.9ZM427.5 545V536H436.2C447 536 448 536.8 448 545.1C448 551 447.9 551.1 444.5 552.6C442.6 553.3 438 554 434.3 554H427.5V545ZM443.8 549.8C444.5 549.1 445 546.7 445 544.3C445 539.2 443.4 538 436.1 538H431V551H436.8C440 551 443.1 550.5 443.8 549.8ZM451 552.5C451 551.7 451.5 551 452 551C452.6 551 453 548.2 453 544.5C453 540.8 452.6 538 452 538C451.5 538 451 537.6 451 537C451 536.5 452.6 536 454.5 536C456.4 536 458 536.5 458 537C458 537.6 457.6 538 457 538C455.5 538 455.7 550.7 457.2 551.2C459.3 551.9 456.9 554 453.9 554C452 554 451 553.5 451 552.5ZM467.9 553.3C467.8 552.8 467.9 549.2 468 545.3C468.2 539 467.9 538 466.4 538C465.5 538 464.2 538.7 463.5 539.7C462.1 541.6 460 540.6 460 537.9C460 536.1 460.8 536 470 536C479.2 536 480 536.1 480 537.9C480 540.6 478 541.7 476.8 539.6C476.3 538.7 475.1 538 474 538C472.4 538 472.1 538.9 471.8 544.5C471.7 548.1 471.9 551.1 472.4 551.3C472.9 551.5 473 552.2 472.6 552.8C471.8 554.1 468.1 554.5 467.9 553.3ZM482.4 552.9C482 552.2 482.2 551.4 482.8 551.2C484.3 550.7 484.5 538 483 538C482.5 538 482 537.6 482 537C482 536.5 483.9 536 486.1 536C489.3 536 490 536.3 489.2 537.3C488.7 537.9 488 541.3 487.8 544.8C487.5 549.6 487.7 551 488.8 551C489.5 551 490 551.6 489.8 552.3C489.2 553.9 483.4 554.4 482.4 552.9ZM496 553.4C493.2 552.3 492 549.6 492 544.5C492 537.4 493.7 536 502.1 536C511.1 536 512.9 537.4 512.8 544.5C512.7 551.6 510.9 553.3 503.2 553.7C500.1 553.8 496.8 553.7 496 553.4ZM508.8 545.1C509.2 538.8 508.5 538 501.9 538C496.3 538 495 539.3 495.3 544.6C495.7 550.5 496.4 551.1 502.8 550.8L508.5 550.5L508.8 545.1ZM515.5 553C515.1 552.4 515.3 551.4 515.8 550.7C517.1 549.2 517.2 539.2 515.9 538.5C514 537.3 515.1 536 517.9 536C520.3 536 521.7 537.1 525.6 542C528.2 545.3 530.5 548 530.8 548C531 548 531 545.3 530.8 542L530.4 536H533.4C535.7 536 536.1 536.3 535.2 537.2C533.6 538.8 533.6 550.7 535.3 551.3C536.2 551.7 536.1 552.1 535 552.9C532.5 554.7 530.5 554.1 528.7 551.3C527.8 549.7 525.3 546.5 523.2 544.1L519.4 539.8L520 546.1C520.7 552.4 520.1 553.9 517.3 554C516.7 554 515.8 553.5 515.5 553ZM538.7 553.4C537.7 552.4 539.2 545.6 541.1 542.4C542.2 540.6 542.7 538.5 542.4 537.6C541.9 536.2 542.8 536 549.4 536C553.8 536 557 536.4 557 537C557 537.6 556.5 538 556 538C555.4 538 556.2 539.8 557.6 542C559.4 544.8 560 546.7 559.6 548.4C559.2 549.9 559.5 551 560.3 551.3C562.2 552 559.6 554.3 557.4 553.8C556 553.5 555.6 552.7 555.8 550.7C556.1 548 556 548 549.6 548C545 548 543.1 548.4 542.7 549.4C542.4 550.2 542.6 551 543.2 551.2C544.9 551.8 543.2 554 541.1 554C540.1 554 539.1 553.7 538.7 553.4ZM553.4 541.5C552 539.6 550 538 549.1 538C547.7 538 544 542.6 544 544.4C544 544.7 546.7 545 550.1 545H556.1L553.4 541.5ZM563.5 553C563.1 552.4 563.3 551.3 564 550.5C565.2 549 565.1 539.2 563.8 538.4C561.8 537.1 563.3 536 567.1 536C569.9 536 571 536.4 570.7 537.3C570.5 537.9 569.7 538.4 569.1 538.3C568.4 538.1 568 540.2 568 544.5V551H574.5C578.2 551 581 550.6 581 550C581 549.5 581.7 549 582.6 549C583.6 549 584 549.7 583.8 551.3C583.5 553.4 583 553.5 573.8 553.8C567.7 554 563.9 553.7 563.5 553ZM594.9 553.8L594.7 544.7L594.5 536H602.8C614.2 536 614.8 536.4 614.8 544.5C614.8 550.7 614.6 551.2 611.9 552.5C609.6 553.7 595.2 554.8 594.9 553.8ZM610.7 549.9C613.1 547.5 610.9 546 605 546C599.6 546 599.2 546.2 598.8 548.5C598.3 550.9 598.4 551 603.9 551C607.1 551 610.1 550.5 610.7 549.9ZM611.3 541.6C612.2 539.3 609.8 538 604.5 538C598.6 538 598 538.3 598.7 541.1C599.2 542.7 600.1 543 605 543C609 543 611 542.6 611.3 541.6ZM617.9 553.8L617.7 544.7L617.5 536H625.8C630.4 536 635 536.5 636.1 537C638.9 538.5 638.5 542.5 635.4 544.7C633.1 546.4 632.9 546.9 633.9 548.8C634.5 550 635.7 551 636.5 551C639 551 638.2 552.9 635.5 553.6C632.4 554.4 631.9 553.9 630.5 549.7C629.7 547 629 546.5 625.9 546.2C622.8 545.9 622.2 546.3 621.7 548.2C621.3 549.5 621.6 550.8 622.3 551.2C623.2 551.8 623.1 552.2 622 553C620.6 553.9 618.1 554.4 617.9 553.8ZM634.3 541.6C635.2 539.3 632.8 538 627.5 538C621.6 538 621 538.3 621.7 541.1C622.2 542.7 623.1 543 628 543C632 543 634 542.6 634.3 541.6ZM641.4 552.8C641 552.2 641.2 551.4 641.8 551.2C643.3 550.7 643.5 538 642 538C641.5 538 641 537.6 641 537C641 536.5 642.6 536 644.5 536C647.7 536 648.8 536.8 647.4 538.3C646.4 539.2 646.4 551 647.4 551.3C649.2 551.9 646.9 554 644.5 554C643.2 554 641.8 553.5 641.4 552.8ZM654 552.8C651.8 551.6 651.5 550.7 651.2 545.1C650.8 536.7 651.5 536 660.6 536C666.7 536 668.4 536.4 670 538C672.7 540.7 672.5 542 669.6 542C668.1 542 667 541.3 666.7 540C666.3 538.3 665.3 538 661.3 538C655.4 538 654 539.2 654 544.1C654 550.5 654.6 551 661.1 551C666.3 551 667 550.8 667 549C667 547.5 667.7 547 669.5 547C672.5 547 672.6 548 670.1 551.1C668.7 552.9 667.1 553.4 662.4 553.7C658.8 553.9 655.5 553.6 654 552.8ZM675.9 553.8L675.7 544.7L675.5 536H678.3C680.9 536 681.7 536.9 680.3 538.4C679.9 538.7 679.5 539.9 679.3 541C679.1 542.7 679.6 543 683.1 543C687 543 693 540.7 693 539.2C693 538.7 692.5 537.9 691.8 537.2C690.9 536.3 691.3 536 693.9 536C696.5 536 697.1 536.3 696.6 537.6C696.3 538.5 696 539.7 696 540.4C696 541.1 694.8 542.2 693.3 542.9L690.5 544.2L693.3 545.7C695.4 546.7 696 547.7 695.7 549.1C695.4 550.1 695.6 551 696.1 551C696.6 551 697 551.7 697 552.5C697 553.4 696.1 554 694.6 554C691.6 554 690.4 552.4 692 550.5C693.6 548.6 688.5 546 683.3 546C680 546 679.4 546.3 679.4 548.3C679.4 549.5 679.8 550.8 680.3 551.1C681.7 552.1 680.2 554 677.9 554L675.9 553.8ZM453.4 165C453.4 158.1 453.5 155.3 453.7 158.8C453.9 162.2 453.9 167.8 453.7 171.3C453.5 174.7 453.4 171.9 453.4 165Z" fill="#070706"/>
</g>
<defs>
<clipPath id="clip0_702_505">
<rect width="1053" height="727" fill="white"/>
</clipPath>
</defs>
</svg>